HIERARCHY
ROOT Hips
{
	OFFSET 0.000000 103.266502 0.000000
	CHANNELS 6 Xposition Yposition Zposition Xrotation Yrotation Zrotation 
	JOINT Spine
	{
		OFFSET -0.002400 12.777504 0.315300
		CHANNELS 3 Xrotation Yrotation Zrotation
		JOINT Spine1
		{
			OFFSET -0.002067 5.816869 0.032633
			CHANNELS 3 Xrotation Yrotation Zrotation
			JOINT Spine1_split
			{
				OFFSET -0.002067 5.816869 0.032633
				CHANNELS 3 Xrotation Yrotation Zrotation
				JOINT Spine2
				{
					OFFSET -0.002067 5.816869 0.032633
					CHANNELS 3 Xrotation Yrotation Zrotation
					JOINT Neck
					{
						OFFSET -0.003700 21.199493 -0.826900
						CHANNELS 3 Xrotation Yrotation Zrotation
						JOINT Head
						{
							OFFSET 0.000000 20.442200 4.834800
							CHANNELS 3 Xrotation Yrotation Zrotation
							JOINT HeadTop_End
							{
								OFFSET 0.000000 34.668396 4.968400
								CHANNELS 3 Xrotation Yrotation Zrotation
								End Site
								{
									OFFSET 0.000000 0.000000 0.000000
								}
							}
						}
					}
					JOINT LeftShoulder
					{
						OFFSET 3.288150 8.794197 -1.372250
						CHANNELS 3 Xrotation Yrotation Zrotation
						JOINT LeftShoulder_split
						{
							OFFSET 3.288150 8.794197 -1.372250
							CHANNELS 3 Xrotation Yrotation Zrotation
							JOINT LeftArm
							{
								OFFSET 11.953299 -2.279007 -0.146200
								CHANNELS 3 Xrotation Yrotation Zrotation
								JOINT LeftForeArm
								{
									OFFSET 18.448900 0.000000 0.000000
									CHANNELS 3 Xrotation Yrotation Zrotation
									JOINT LeftHand
									{
										OFFSET 29.527798 0.000000 0.000000
										CHANNELS 3 Xrotation Yrotation Zrotation
										JOINT LeftHandThumb1
										{
											OFFSET 10.739754 -2.369614 9.225399
											CHANNELS 3 Xrotation Yrotation Zrotation
											JOINT LeftHandThumb2
											{
												OFFSET 4.926170 -2.844131 2.844125
												CHANNELS 3 Xrotation Yrotation Zrotation
												JOINT LeftHandThumb3
												{
													OFFSET 4.614891 -2.664413 2.664409
													CHANNELS 3 Xrotation Yrotation Zrotation
													JOINT LeftHandThumb4
													{
														OFFSET 4.432465 -2.559082 2.559083
														CHANNELS 3 Xrotation Yrotation Zrotation
														End Site
														{
															OFFSET 0.000000 0.000000 0.000000
														}
													}
												}
											}
										}
										JOINT LeftHandIndex1
										{
											OFFSET 26.467674 0.187653 6.405298
											CHANNELS 3 Xrotation Yrotation Zrotation
											JOINT LeftHandIndex2
											{
												OFFSET 8.792900 0.000000 0.000000
												CHANNELS 3 Xrotation Yrotation Zrotation
												JOINT LeftHandIndex3
												{
													OFFSET 10.075203 0.000000 0.000000
													CHANNELS 3 Xrotation Yrotation Zrotation
													End Site
													{
														OFFSET 0.000000 0.000000 0.000000
													}
												}
											}
										}
										JOINT LeftHandMiddle1
										{
											OFFSET 25.764404 0.000000 0.000000
											CHANNELS 3 Xrotation Yrotation Zrotation
											JOINT LeftHandMiddle2
											{
												OFFSET 9.393974 0.000000 0.000000
												CHANNELS 3 Xrotation Yrotation Zrotation
												JOINT LeftHandMiddle3
												{
													OFFSET 10.771950 0.000000 0.000000
													CHANNELS 3 Xrotation Yrotation Zrotation
													End Site
													{
														OFFSET 0.000000 0.000000 0.000000
													}
												}
											}
										}
										JOINT LeftHandRing1
										{
											OFFSET 24.660927 0.144547 -6.225808
											CHANNELS 3 Xrotation Yrotation Zrotation
											JOINT LeftHandRing2
											{
												OFFSET 9.393799 0.000000 0.000000
												CHANNELS 3 Xrotation Yrotation Zrotation
												JOINT LeftHandRing3
												{
													OFFSET 9.928497 0.000000 0.000000
													CHANNELS 3 Xrotation Yrotation Zrotation
													End Site
													{
														OFFSET 0.000000 0.000000 0.000000
													}
												}
											}
										}
										JOINT LeftHandPinky1
										{
											OFFSET 23.655350 0.125290 -12.815412
											CHANNELS 3 Xrotation Yrotation Zrotation
											JOINT LeftHandPinky2
											{
												OFFSET 8.425102 0.000000 0.000000
												CHANNELS 3 Xrotation Yrotation Zrotation
												JOINT LeftHandPinky3
												{
													OFFSET 8.147003 0.000000 0.000000
													CHANNELS 3 Xrotation Yrotation Zrotation
													End Site
													{
														OFFSET 0.000000 0.000000 0.000000
													}
												}
											}
										}
									}
								}
							}
						}
					}
					JOINT RightShoulder
					{
						OFFSET -3.249400 8.794197 -1.372250
						CHANNELS 3 Xrotation Yrotation Zrotation
						JOINT RightShoulder_split
						{
							OFFSET -3.249400 8.794197 -1.372250
							CHANNELS 3 Xrotation Yrotation Zrotation
							JOINT RightArm
							{
								OFFSET -11.953299 -2.279007 -0.146200
								CHANNELS 3 Xrotation Yrotation Zrotation
								JOINT RightForeArm
								{
									OFFSET -18.448900 0.000000 0.000000
									CHANNELS 3 Xrotation Yrotation Zrotation
									JOINT RightHand
									{
										OFFSET -29.527802 0.000000 0.000000
										CHANNELS 3 Xrotation Yrotation Zrotation
										JOINT RightHandThumb1
										{
											OFFSET -10.739754 -2.369614 9.225399
											CHANNELS 3 Xrotation Yrotation Zrotation
											JOINT RightHandThumb2
											{
												OFFSET -4.926170 -2.844131 2.844125
												CHANNELS 3 Xrotation Yrotation Zrotation
												JOINT RightHandThumb3
												{
													OFFSET -4.614891 -2.664413 2.664409
													CHANNELS 3 Xrotation Yrotation Zrotation
													JOINT RightHandThumb4
													{
														OFFSET -4.432465 -2.559082 2.559083
														CHANNELS 3 Xrotation Yrotation Zrotation
														End Site
														{
															OFFSET 0.000000 0.000000 0.000000
														}
													}
												}
											}
										}
										JOINT RightHandIndex1
										{
											OFFSET -26.467674 0.187653 6.405298
											CHANNELS 3 Xrotation Yrotation Zrotation
											JOINT RightHandIndex2
											{
												OFFSET -8.792900 0.000000 0.000000
												CHANNELS 3 Xrotation Yrotation Zrotation
												JOINT RightHandIndex3
												{
													OFFSET -10.075203 0.000000 0.000000
													CHANNELS 3 Xrotation Yrotation Zrotation
													End Site
													{
														OFFSET 0.000000 0.000000 0.000000
													}
												}
											}
										}
										JOINT RightHandMiddle1
										{
											OFFSET -25.764404 0.000000 0.000000
											CHANNELS 3 Xrotation Yrotation Zrotation
											JOINT RightHandMiddle2
											{
												OFFSET -9.393974 0.000000 0.000000
												CHANNELS 3 Xrotation Yrotation Zrotation
												JOINT RightHandMiddle3
												{
													OFFSET -10.771950 0.000000 0.000000
													CHANNELS 3 Xrotation Yrotation Zrotation
													End Site
													{
														OFFSET 0.000000 0.000000 0.000000
													}
												}
											}
										}
										JOINT RightHandRing1
										{
											OFFSET -24.660927 0.144547 -6.225808
											CHANNELS 3 Xrotation Yrotation Zrotation
											JOINT RightHandRing2
											{
												OFFSET -9.393799 0.000000 0.000000
												CHANNELS 3 Xrotation Yrotation Zrotation
												JOINT RightHandRing3
												{
													OFFSET -9.928497 0.000000 0.000000
													CHANNELS 3 Xrotation Yrotation Zrotation
													End Site
													{
														OFFSET 0.000000 0.000000 0.000000
													}
												}
											}
										}
										JOINT RightHandPinky1
										{
											OFFSET -23.655350 0.125290 -12.815412
											CHANNELS 3 Xrotation Yrotation Zrotation
											JOINT RightHandPinky2
											{
												OFFSET -8.425102 0.000000 0.000000
												CHANNELS 3 Xrotation Yrotation Zrotation
												JOINT RightHandPinky3
												{
													OFFSET -8.147003 0.000000 0.000000
													CHANNELS 3 Xrotation Yrotation Zrotation
													End Site
													{
														OFFSET 0.000000 0.000000 0.000000
													}
												}
											}
										}
									}
								}
							}
						}
					}
				}
			}
		}
	}
	JOINT LeftUpLeg
	{
		OFFSET 11.394100 -6.187798 -0.413800
		CHANNELS 3 Xrotation Yrotation Zrotation
		JOINT LeftLeg
		{
			OFFSET 0.430247 -32.302673 3.732800
			CHANNELS 3 Xrotation Yrotation Zrotation
			JOINT LeftFoot
			{
				OFFSET -0.430247 -48.264931 -6.423300
				CHANNELS 3 Xrotation Yrotation Zrotation
				JOINT LeftToeBase
				{
					OFFSET 4.230900 -16.068199 23.438400
					CHANNELS 3 Xrotation Yrotation Zrotation
					JOINT LeftToe_End
					{
						OFFSET 4.510700 0.695400 19.974600
						CHANNELS 3 Xrotation Yrotation Zrotation
						End Site
						{
							OFFSET 0.000000 0.000000 0.000000
						}
					}
				}
			}
		}
	}
	JOINT RightUpLeg
	{
		OFFSET -11.333700 -6.187798 -0.413800
		CHANNELS 3 Xrotation Yrotation Zrotation
		JOINT RightLeg
		{
			OFFSET -0.430392 -32.302628 3.733000
			CHANNELS 3 Xrotation Yrotation Zrotation
			JOINT RightFoot
			{
				OFFSET 0.430392 -48.264973 -6.423500
				CHANNELS 3 Xrotation Yrotation Zrotation
				JOINT RightToeBase
				{
					OFFSET -4.230900 -16.068199 23.438400
					CHANNELS 3 Xrotation Yrotation Zrotation
					JOINT RightToe_End
					{
						OFFSET -4.510700 0.695400 19.974600
						CHANNELS 3 Xrotation Yrotation Zrotation
						End Site
						{
							OFFSET 0.000000 0.000000 0.000000
						}
					}
				}
			}
		}
	}
}
MOTION
Frames: 5
Frame Time: 0.016667
-6.558671 96.474617 0.482943 2.465135 27.977245 0.616744 3.895834 4.669726 -1.601774 0.662380 3.033942 0.848256 0.000000 0.000000 0.000000 0.672735 3.142734 0.838938 -2.710827 10.151295 -6.043549 -8.274085 5.419457 8.279210 -0.000000 -0.000003 -0.000000 -0.170428 1.694762 -1.674852 0.000000 0.000000 0.000000 -70.359158 1.043900 -26.985326 2.443069 -70.793251 3.754349 -29.776152 28.488654 8.482180 17.563627 -5.693988 -12.929225 10.852324 26.148375 8.654083 20.924887 51.116436 0.219804 -0.000000 0.000001 -0.000003 13.978255 1.203573 -55.006044 0.372686 1.163871 -65.441866 -0.000000 -0.000000 -0.000002 7.502549 1.175410 -63.755287 1.809490 1.478261 -64.569863 0.000001 0.000000 0.000002 8.574328 2.179094 -75.149006 -0.208036 1.014712 -57.856798 -0.000001 -0.000002 -0.000001 10.030090 13.637047 -84.750258 0.878836 0.065140 -64.595490 0.000001 0.000000 -0.000000 4.020284 15.450583 6.652471 0.000000 0.000000 0.000000 13.125180 -8.190058 63.320799 15.659590 40.753522 -6.335575 0.612805 5.014367 4.113596 15.788510 -2.734493 -17.205890 -2.198348 -31.113557 7.361181 -6.563753 -4.145947 2.404842 0.000000 -0.000001 -0.000002 2.074281 -2.892231 8.063596 -2.121943 -2.465258 18.435502 -0.000001 -0.000000 0.000000 -2.068503 -5.551585 13.796151 0.296903 -5.077998 27.073162 -0.000002 -0.000000 0.000002 -2.790450 -9.236757 13.386729 4.022960 -4.011802 34.251746 -0.000000 0.000000 0.000001 -5.652140 -13.452093 23.029989 10.777265 -2.332150 36.218437 -0.000001 0.000001 -0.000001 -33.489657 -23.173886 0.634379 27.688882 15.591804 -7.563465 4.435215 -3.203569 -5.837689 -2.984901 -1.725344 -0.462252 0.000000 0.000001 0.000000 -5.220351 -27.028057 -9.420029 28.798782 -8.715830 7.570787 -24.361347 -10.490710 0.638816 -1.306430 -0.028481 0.200605 0.000000 -0.000001 0.000000 
-6.576266 96.499336 0.377751 2.694947 26.583170 0.440601 3.962679 4.590274 -1.618784 0.707251 2.981740 0.854121 0.000000 0.000000 0.000000 0.717239 3.091646 0.846012 -3.079325 8.772048 -5.694021 -7.482103 4.208279 8.375152 0.000000 -0.000001 -0.000000 -0.162802 1.312169 -1.801277 0.000000 0.000000 0.000000 -70.388911 1.155127 -27.050797 2.651044 -71.946426 3.781654 -30.374934 28.694608 9.100157 17.563623 -5.693988 -12.929225 10.852330 26.148375 8.654081 20.924889 51.116429 0.219804 0.000002 0.000000 -0.000003 13.978255 1.203573 -55.006041 0.372689 1.163871 -65.441859 0.000002 0.000000 0.000000 7.502550 1.175410 -63.755287 1.809488 1.478260 -64.569863 0.000001 0.000002 -0.000001 8.574327 2.179095 -75.149006 -0.208035 1.014711 -57.856798 0.000000 -0.000000 -0.000000 10.030091 13.637046 -84.750258 0.878835 0.065140 -64.595490 0.000001 0.000001 0.000002 4.048799 15.426138 6.521217 0.000000 0.000000 0.000000 12.805607 -8.144396 63.265754 15.745726 41.230860 -6.421019 0.382669 5.166908 4.027969 15.788512 -2.734491 -17.205892 -2.198350 -31.113554 7.361182 -6.563753 -4.145947 2.404844 0.000001 -0.000000 -0.000002 2.074624 -2.893184 8.030025 -2.121170 -2.465801 18.407484 0.000002 -0.000001 0.000000 -2.069246 -5.550827 13.763150 0.297742 -5.078509 27.045831 0.000000 -0.000002 -0.000002 -2.792291 -9.234411 13.352262 4.022586 -4.012739 34.223226 0.000001 -0.000002 0.000004 -5.659317 -13.435646 23.012577 10.777858 -2.332964 36.195437 -0.000001 0.000001 0.000001 -33.372636 -22.505910 1.329872 27.894610 15.874314 -7.568656 4.253627 -2.993088 -5.956055 -3.033229 -1.803891 -0.483757 -0.000000 -0.000001 -0.000000 -5.799395 -26.005674 -9.316789 28.946253 -8.467573 7.401424 -24.179356 -10.367733 0.628069 -1.303121 -0.028247 0.191544 0.000000 0.000000 -0.000000 
-6.584999 96.521057 0.262229 2.952844 25.154009 0.263090 4.025181 4.524926 -1.616311 0.745715 2.934851 0.846917 0.000000 0.000000 0.000000 0.756889 3.044790 0.839890 -3.457282 7.577841 -5.438824 -6.770384 3.128965 8.503116 -0.000000 0.000001 -0.000000 -0.084037 0.806785 -1.884202 0.000000 0.000000 0.000000 -70.540281 1.291849 -27.179157 2.895122 -73.071051 3.786817 -31.235650 28.851392 9.761307 17.563627 -5.693987 -12.929221 10.852326 26.148372 8.654078 20.924891 51.116425 0.219801 0.000001 0.000003 0.000000 13.978254 1.203575 -55.006047 0.372687 1.163871 -65.441866 0.000000 0.000003 0.000003 7.502550 1.175410 -63.755287 1.809489 1.478260 -64.569856 -0.000001 0.000001 -0.000000 8.574327 2.179098 -75.149006 -0.208034 1.014712 -57.856798 0.000001 -0.000002 -0.000001 10.030090 13.637046 -84.750258 0.878836 0.065139 -64.595490 -0.000001 -0.000000 -0.000003 4.018020 15.343494 6.386901 0.000000 0.000000 0.000000 12.582825 -8.065746 63.241849 15.851390 41.731971 -6.506761 0.197820 5.306172 3.964799 15.788510 -2.734491 -17.205890 -2.198349 -31.113550 7.361183 -6.563757 -4.145950 2.404846 0.000000 -0.000001 -0.000000 2.074931 -2.893528 7.958540 -2.120544 -2.465780 18.342307 -0.000000 -0.000000 0.000001 -2.070271 -5.549539 13.692527 0.297861 -5.078826 26.981093 0.000000 0.000002 -0.000002 -2.794182 -9.231177 13.280184 4.022282 -4.012930 34.157260 -0.000001 0.000001 0.000001 -5.666651 -13.418893 22.958429 10.777985 -2.333367 36.135744 -0.000000 0.000002 -0.000001 -33.298770 -21.861742 2.021920 28.118784 16.198543 -7.590820 4.066923 -2.755954 -6.086665 -3.078452 -1.876307 -0.501847 0.000000 -0.000002 -0.000000 -6.415638 -24.918849 -9.254175 29.103648 -8.219526 7.315036 -23.982049 -10.230009 0.619969 -1.298631 -0.028008 0.181752 0.000000 -0.000002 -0.000000 
-6.588337 96.540268 0.137113 3.240296 23.686731 0.084352 4.075477 4.422386 -1.647611 0.790328 2.868909 0.853545 0.000000 0.000000 0.000000 0.800377 2.980547 0.848366 -3.958433 6.548222 -5.148042 -6.079051 2.232487 8.598650 -0.000000 0.000001 0.000000 -0.018821 0.448286 -1.891517 0.000000 0.000000 0.000000 -70.716541 1.401119 -27.633590 3.155428 -74.131089 3.832599 -32.165092 28.983382 10.355865 17.563627 -5.693991 -12.929221 10.852326 26.148375 8.654081 20.924887 51.116425 0.219802 -0.000000 0.000000 -0.000003 13.978255 1.203573 -55.006044 0.372686 1.163870 -65.441859 0.000001 0.000001 -0.000002 7.502550 1.175409 -63.755287 1.809491 1.478261 -64.569856 -0.000001 -0.000003 -0.000003 8.574326 2.179097 -75.149006 -0.208036 1.014712 -57.856798 -0.000000 0.000000 0.000001 10.030091 13.637046 -84.750251 0.878834 0.065141 -64.595490 -0.000000 0.000000 0.000002 4.046388 15.322747 6.229106 0.000000 0.000000 0.000000 12.299347 -7.930856 63.218120 15.936197 42.171637 -6.586676 0.097002 5.468610 3.943412 15.788512 -2.734491 -17.205894 -2.198350 -31.113550 7.361174 -6.563758 -4.145948 2.404840 0.000001 0.000001 -0.000001 2.075172 -2.893282 7.852196 -2.120030 -2.465261 18.240818 -0.000000 -0.000001 0.000001 -2.071542 -5.547789 13.586794 0.297062 -5.079026 26.880701 -0.000001 -0.000003 -0.000001 -2.798427 -9.227080 13.172288 4.022029 -4.012410 34.056030 -0.000001 0.000001 0.000000 -5.674518 -13.400885 22.869609 10.777677 -2.333356 36.041269 -0.000001 -0.000000 -0.000005 -33.268755 -21.268246 2.712790 28.354762 16.554319 -7.636879 3.891893 -2.500506 -6.209170 -3.123985 -1.938778 -0.511911 0.000000 0.000002 0.000000 -7.104936 -23.840514 -9.212008 29.306129 -7.990602 7.235049 -23.781021 -10.099538 0.594808 -1.294251 -0.027913 0.178329 -0.000000 -0.000001 -0.000000 
-6.588857 96.560326 0.003531 3.555729 22.175579 -0.094766 4.125368 4.314497 -1.659599 0.813767 2.798219 0.871274 0.000000 0.000000 0.000000 0.822899 2.911499 0.866820 -4.434307 5.616290 -5.025565 -5.511906 1.377571 8.838561 0.000000 0.000003 -0.000000 0.049265 0.112965 -1.841731 0.000000 0.000000 0.000000 -70.965358 1.555723 -28.323613 3.446408 -75.023447 3.823159 -33.074351 29.037088 10.816287 17.563627 -5.693990 -12.929218 10.852324 26.148373 8.654082 20.924894 51.116425 0.219801 0.000002 0.000003 0.000002 13.978257 1.203573 -55.006041 0.372689 1.163872 -65.441866 0.000000 0.000000 0.000000 7.502550 1.175407 -63.755287 1.809493 1.478261 -64.569849 -0.000001 0.000003 0.000001 8.574328 2.179093 -75.149006 -0.208037 1.014712 -57.856798 0.000001 0.000000 0.000001 10.030091 13.637045 -84.750251 0.878835 0.065140 -64.595490 0.000001 -0.000001 0.000002 4.069650 15.320693 6.024854 0.000000 0.000000 0.000000 12.145399 -7.778633 63.262517 16.010670 42.685342 -6.730044 0.109505 5.573311 3.945697 15.788512 -2.734491 -17.205889 -2.198352 -31.113554 7.361177 -6.563757 -4.145949 2.404843 -0.000002 0.000002 0.000001 2.075384 -2.892495 7.711508 -2.119661 -2.464904 18.106575 0.000002 -0.000001 -0.000000 -2.073071 -5.545621 13.447020 0.295633 -5.079052 26.747099 -0.000002 0.000002 0.000000 -2.803180 -9.222167 13.030515 4.021852 -4.013303 33.921363 0.000000 0.000000 0.000001 -5.682215 -13.383318 22.747877 10.777002 -2.332973 35.913787 -0.000001 -0.000000 0.000001 -33.294549 -21.117415 3.254733 28.633220 17.208310 -7.646738 3.724523 -2.028060 -6.466264 -3.129709 -1.945501 -0.512977 -0.000000 0.000002 -0.000000 -7.833866 -22.688804 -9.108497 29.485165 -7.728215 7.114857 -23.552167 -9.964058 0.601993 -1.290837 -0.027610 0.165122 -0.000000 -0.000001 -0.000000 
